<svg width="80" height="80" viewBox="0 0 80 80" fill="none" xmlns="http://www.w3.org/2000/svg">
<g clip-path="url(#clip0_3_228)">
<path d="M22.692 0C23.4346 0 24.1468 0.294999 24.6719 0.820101C25.197 1.3452 25.492 2.05739 25.492 2.8V8.036H55.56V2.836C55.56 2.09339 55.855 1.3812 56.3801 0.856101C56.9052 0.330999 57.6174 0.036 58.36 0.036C59.1026 0.036 59.8148 0.330999 60.3399 0.856101C60.865 1.3812 61.16 2.09339 61.16 2.836V8.036H72C74.121 8.036 76.1553 8.87831 77.6554 10.3777C79.1556 11.8772 79.9989 13.911 80 16.032V72.004C79.9989 74.125 79.1556 76.1588 77.6554 77.6583C76.1553 79.1577 74.121 80 72 80H8C5.87896 80 3.84474 79.1577 2.34456 77.6583C0.844383 76.1588 0.00106052 74.125 0 72.004L0 16.032C0.00106052 13.911 0.844383 11.8772 2.34456 10.3777C3.84474 8.87831 5.87896 8.036 8 8.036H19.892V2.796C19.8931 2.05409 20.1885 1.34292 20.7135 0.818686C21.2385 0.294449 21.9501 -7.57054e-07 22.692 0ZM5.6 30.968V72.004C5.6 72.3192 5.66208 72.6313 5.78269 72.9224C5.9033 73.2136 6.08008 73.4782 6.30294 73.7011C6.5258 73.9239 6.79038 74.1007 7.08156 74.2213C7.37274 74.3419 7.68483 74.404 8 74.404H72C72.3152 74.404 72.6273 74.3419 72.9184 74.2213C73.2096 74.1007 73.4742 73.9239 73.6971 73.7011C73.9199 73.4782 74.0967 73.2136 74.2173 72.9224C74.3379 72.6313 74.4 72.3192 74.4 72.004V31.024L5.6 30.968ZM26.668 58.476V65.14H20V58.476H26.668ZM43.332 58.476V65.14H36.668V58.476H43.332ZM60 58.476V65.14H53.332V58.476H60ZM26.668 42.568V49.232H20V42.568H26.668ZM43.332 42.568V49.232H36.668V42.568H43.332ZM60 42.568V49.232H53.332V42.568H60ZM19.892 13.632H8C7.68483 13.632 7.37274 13.6941 7.08156 13.8147C6.79038 13.9353 6.5258 14.1121 6.30294 14.3349C6.08008 14.5578 5.9033 14.8224 5.78269 15.1136C5.66208 15.4047 5.6 15.7168 5.6 16.032V25.372L74.4 25.428V16.032C74.4 15.7168 74.3379 15.4047 74.2173 15.1136C74.0967 14.8224 73.9199 14.5578 73.6971 14.3349C73.4742 14.1121 73.2096 13.9353 72.9184 13.8147C72.6273 13.6941 72.3152 13.632 72 13.632H61.16V17.348C61.16 18.0906 60.865 18.8028 60.3399 19.3279C59.8148 19.853 59.1026 20.148 58.36 20.148C57.6174 20.148 56.9052 19.853 56.3801 19.3279C55.855 18.8028 55.56 18.0906 55.56 17.348V13.632H25.492V17.312C25.492 18.0546 25.197 18.7668 24.6719 19.2919C24.1468 19.817 23.4346 20.112 22.692 20.112C21.9494 20.112 21.2372 19.817 20.7121 19.2919C20.187 18.7668 19.892 18.0546 19.892 17.312V13.632Z" fill="#001117"/>
</g>
<defs>
<clipPath id="clip0_3_228">
<rect width="80" height="80" fill="white"/>
</clipPath>
</defs>
</svg>
