<svg width="40" height="40" viewBox="0 0 40 40" fill="none" xmlns="http://www.w3.org/2000/svg">
<path d="M20.0017 3.33337C10.7933 3.33337 3.335 10.7917 3.335 20C3.33198 23.4989 4.43126 26.9097 6.47675 29.7484C8.52225 32.587 11.41 34.7091 14.73 35.8134C15.5633 35.9584 15.8767 35.4584 15.8767 35.02C15.8767 34.625 15.855 33.3134 15.855 31.9167C11.6683 32.6884 10.585 30.8967 10.2517 29.9584C10.0633 29.4784 9.25166 28 8.54333 27.6034C7.96 27.2917 7.12666 26.52 8.52166 26.5C9.835 26.4784 10.7717 27.7084 11.085 28.2084C12.585 30.7284 14.98 30.02 15.9383 29.5834C16.085 28.5 16.5217 27.7717 17.0017 27.355C13.2933 26.9384 9.41833 25.5 9.41833 19.125C9.41833 17.3117 10.0633 15.8134 11.1267 14.6467C10.96 14.23 10.3767 12.5217 11.2933 10.23C11.2933 10.23 12.6883 9.79171 15.8767 11.9367C17.2336 11.5611 18.6354 11.3722 20.0433 11.375C21.46 11.375 22.8767 11.5617 24.21 11.9367C27.3983 9.77004 28.7933 10.23 28.7933 10.23C29.71 12.5217 29.1267 14.23 28.96 14.6467C30.0217 15.8134 30.6683 17.2917 30.6683 19.125C30.6683 25.5217 26.7733 26.9384 23.065 27.355C23.6683 27.875 24.19 28.875 24.19 30.4384C24.19 32.6667 24.1683 34.4584 24.1683 35.0217C24.1683 35.4584 24.4817 35.9784 25.315 35.8117C28.6225 34.6936 31.4964 32.5669 33.5326 29.7307C35.5688 26.8945 36.6648 23.4915 36.6667 20C36.6667 10.7917 29.2083 3.33337 20 3.33337" fill="black"/>
</svg>
