<svg width="40" height="40" viewBox="0 0 40 40" fill="none" xmlns="http://www.w3.org/2000/svg">
<path d="M11.7758 37.8891C10.7578 37.8891 9.77578 37.4844 9.05234 36.7602C7.55234 35.2602 7.55234 32.818 9.05234 31.3164L15.4609 24.9078C15.6742 24.6946 16.0211 24.6946 16.2344 24.9078C16.4476 25.1211 16.4476 25.468 16.2344 25.6813L9.82577 32.0899C8.75156 33.1649 8.75156 34.9125 9.82577 35.9867C10.3789 36.5407 11.1437 36.8328 11.9258 36.7907C12.7062 36.7477 13.4351 36.3735 13.9242 35.7633L20.1414 28.0133L17.1203 23.9055C16.9414 23.6625 16.9937 23.3196 17.2367 23.1407C17.4805 22.9617 17.8226 23.0141 18.0016 23.2571L21.2719 27.7039C21.4187 27.9039 21.4133 28.1766 21.2578 28.3703L14.7773 36.4477C14.0937 37.3 13.0766 37.8235 11.9852 37.8828C11.9148 37.8867 11.8453 37.8891 11.7758 37.8891Z" fill="#247AFA"/>
<path d="M24.3703 24.1625C24.2305 24.1625 24.0906 24.1094 23.9836 24.0024L20.5617 20.5805C20.3484 20.3672 20.3484 20.0203 20.5617 19.807L24.9828 15.3852L23.8438 11.1328C23.793 10.9438 23.8469 10.743 23.9852 10.6047L29.1156 5.47424C29.2539 5.33596 29.4555 5.28205 29.6438 5.33283L33.3063 6.31486C33.4953 6.36564 33.6422 6.51252 33.693 6.70158C33.7438 6.89064 33.6898 7.09142 33.5516 7.22971L29.6383 11.143L30.3703 13.8781L33.107 14.611L37.0203 10.6977C37.1586 10.5594 37.3602 10.5055 37.5484 10.5563C37.7375 10.607 37.8844 10.7539 37.9352 10.943L38.9172 14.6055C38.968 14.7945 38.9141 14.9953 38.7758 15.1336L33.6453 20.2641C33.507 20.4024 33.3055 20.4563 33.1172 20.4055L28.6149 19.1992L26.2664 22.1258C26.0773 22.3617 25.7336 22.3992 25.4977 22.2102C25.2617 22.0211 25.2242 21.6766 25.4133 21.4414L27.9852 18.236C28.1211 18.0664 28.3438 17.9938 28.5531 18.05L33.0953 19.2672L37.7789 14.5836L37.1242 12.1406L33.6578 15.607C33.5195 15.7453 33.3188 15.7992 33.1297 15.7485L29.7836 14.8524C29.5945 14.8016 29.4477 14.6539 29.3969 14.4656L28.5016 11.1203C28.4508 10.9313 28.5047 10.7305 28.643 10.5922L32.1094 7.1258L29.6664 6.47111L24.9828 11.1547L26.1219 15.407C26.1727 15.5961 26.1188 15.7969 25.9805 15.9352L21.7227 20.1938L24.7578 23.2289C24.9711 23.4422 24.9711 23.7891 24.7578 24.0024C24.6508 24.1086 24.5102 24.1625 24.3703 24.1625Z" fill="#247AFA"/>
<path d="M29.4875 37.8883C28.157 37.8883 26.9031 37.2422 26.1328 36.1594L14.7914 20.7398C14.6125 20.4969 14.6648 20.1539 14.9078 19.975C15.1508 19.7961 15.4937 19.8484 15.6727 20.0914L27.0172 35.5141C27.0187 35.5164 27.0211 35.5187 27.0227 35.5219C27.5969 36.3305 28.4953 36.7945 29.4883 36.7945C30.293 36.7945 31.0508 36.4805 31.6211 35.9102C32.1914 35.3398 32.5055 34.5812 32.5055 33.7742C32.5055 32.9672 32.1914 32.2094 31.6211 31.6383L16.5219 16.5406L14.1953 18.8672C13.982 19.0805 13.6352 19.0805 13.4219 18.8672C13.2086 18.6539 13.2086 18.307 13.4219 18.0938L16.1359 15.3797C16.3492 15.1664 16.6961 15.1664 16.9094 15.3797L32.3945 30.8648C33.1719 31.6422 33.5992 32.675 33.5992 33.7742C33.5992 34.8727 33.1711 35.9062 32.3945 36.6836C31.6164 37.4609 30.5844 37.8883 29.4875 37.8883Z" fill="#1B3954"/>
<path d="M12.9672 19.8688C12.8273 19.8688 12.6875 19.8156 12.5805 19.7086L10.7344 17.8633C10.6305 17.7594 10.5727 17.618 10.5742 17.4703C10.5758 17.3234 10.6367 17.1828 10.743 17.0813L14.9594 13.0422C15.1742 12.836 15.5141 12.8399 15.7242 13.05L17.4812 14.807C17.6945 15.0203 17.6945 15.3672 17.4812 15.5805L13.3539 19.7078C13.2477 19.8149 13.107 19.8688 12.9672 19.8688ZM11.9031 17.4852L12.9672 18.5484L16.3219 15.1938L15.3305 14.2024L11.9031 17.4852Z" fill="#247AFA"/>
<path d="M14.418 11.1703C14.2781 11.1703 14.1383 11.1172 14.0313 11.0102L10.8055 7.78439C10.5922 7.57111 10.5922 7.22423 10.8055 7.01095L11.6711 6.14533L11.268 4.28595C11.2289 4.10392 11.2844 3.91486 11.4156 3.78361L12.9281 2.27111C13.1414 2.05782 13.4883 2.05782 13.7016 2.27111L19.5438 8.11329C19.757 8.32657 19.757 8.67345 19.5438 8.88673L18.0313 10.3992C17.9 10.5305 17.7102 10.5859 17.5289 10.5469L15.6695 10.1438L14.8039 11.0094C14.6977 11.1164 14.5578 11.1703 14.418 11.1703ZM11.9656 7.39767L14.418 9.85001L15.1078 9.16017C15.2391 9.02892 15.4281 8.97267 15.6102 9.01251L17.4695 9.41564L18.3844 8.50079L13.3148 3.43126L12.4 4.34611L12.8031 6.20548C12.8422 6.38751 12.7867 6.57657 12.6555 6.70782L11.9656 7.39767Z" fill="#1B3954"/>
<path d="M2.49375 19.1641C2.47344 19.1641 2.4539 19.1633 2.43359 19.161C2.26875 19.143 2.12109 19.0508 2.03203 18.9102C1.28359 17.7297 0.952342 16.3102 1.09844 14.9125C1.24687 13.4938 1.88515 12.1563 2.89609 11.1461L5.92109 8.19533C6.1375 7.9844 6.48359 7.98908 6.69453 8.20471C6.90547 8.42111 6.90078 8.76721 6.68515 8.97815L3.66484 11.9242C2.14219 13.4477 1.74844 15.7883 2.625 17.7133L6.04453 14.2938C6.25781 14.0805 6.60468 14.0805 6.81797 14.2938L10.1633 17.6391L15.5242 12.5031L9.42656 6.40549L9.09062 6.72736C8.87265 6.93596 8.52656 6.92893 8.31718 6.71096C8.10859 6.49299 8.11562 6.1469 8.33359 5.93752L9.05625 5.24533C9.27109 5.03986 9.61094 5.04299 9.82109 5.25315L16.693 12.125C16.7969 12.2289 16.8547 12.3703 16.8531 12.5172C16.8516 12.6641 16.7906 12.8047 16.6844 12.9063L10.5336 18.7992C10.3187 19.0047 9.9789 19.0016 9.76875 18.7914L6.43047 15.4531L2.88047 19.0031C2.77734 19.1071 2.63828 19.1641 2.49375 19.1641Z" fill="#1B3954"/>
<path d="M7.47968 8.01485C7.44453 8.01485 7.40859 8.01094 7.37343 8.00391C7.33828 7.99688 7.3039 7.98672 7.27109 7.97266C7.2375 7.95938 7.20625 7.94219 7.17656 7.92266C7.14687 7.90235 7.11875 7.87969 7.09296 7.85469C7.06796 7.82969 7.04531 7.80157 7.025 7.77188C7.00546 7.74219 6.98906 7.71016 6.975 7.67735C6.96171 7.64376 6.95078 7.60938 6.94375 7.57501C6.93671 7.53985 6.93281 7.50391 6.93281 7.46797C6.93281 7.32422 6.9914 7.18282 7.09296 7.08126C7.11875 7.05626 7.14687 7.03282 7.17656 7.01329C7.20625 6.99376 7.2375 6.97657 7.27109 6.96329C7.3039 6.94922 7.33828 6.93907 7.37343 6.93204C7.55078 6.8961 7.73984 6.95469 7.8664 7.08126C7.96875 7.18282 8.02656 7.32422 8.02656 7.46797C8.02656 7.61172 7.96875 7.75313 7.8664 7.85469C7.76484 7.95626 7.62421 8.01485 7.47968 8.01485Z" fill="#1B3954"/>
</svg>
