<svg width="26" height="26" viewBox="0 0 26 26" fill="none" xmlns="http://www.w3.org/2000/svg">
<path d="M7.73309 13.0013V17.4869M10.0754 15.246H5.39285M1.36277 13.3761L0.527982 20.5801C0.408784 21.6143 0.672925 22.6557 1.27417 23.522C1.87541 24.3883 2.77544 25.0243 3.81671 25.3188C4.85798 25.6132 5.97414 25.5473 6.9698 25.1325C7.96545 24.7178 8.77717 23.9806 9.26286 23.0501L9.99228 21.6559H16.01L16.7395 23.0501C17.2259 23.9795 18.0378 24.7155 19.0332 25.1293C20.0285 25.5432 21.144 25.6085 22.1845 25.314C23.2251 25.0195 24.1245 24.3838 24.7255 23.5181C25.3265 22.6524 25.5908 21.6118 25.4723 20.5782L24.6396 13.3741C24.474 11.9494 23.7662 10.6332 22.6514 9.67741C21.5366 8.72158 20.0933 8.19322 18.5975 8.19342H7.40485C5.90873 8.19327 4.46511 8.7219 3.35031 9.67814C2.23551 10.6344 1.52784 11.951 1.36277 13.3761Z" stroke="black" stroke-linecap="round" stroke-linejoin="round"/>
<path d="M13.0012 8.1934V6.29044C13.0012 5.77544 13.2146 5.28154 13.5946 4.91738C13.9746 4.55322 14.49 4.34864 15.0273 4.34864H17.9977C18.5351 4.34864 19.0505 4.14406 19.4305 3.7799C19.8104 3.41575 20.0239 2.92184 20.0239 2.40685V0.5M20.0239 13.9625C19.8964 13.9547 19.7768 13.9007 19.6894 13.8114C19.602 13.7221 19.5533 13.6043 19.5533 13.4819C19.5533 13.3595 19.602 13.2416 19.6894 13.1524C19.7768 13.0631 19.8964 13.0091 20.0239 13.0013C20.0925 12.9971 20.1612 13.0064 20.2258 13.0287C20.2904 13.051 20.3496 13.0857 20.3997 13.1307C20.4497 13.1758 20.4897 13.2302 20.5169 13.2906C20.5442 13.351 20.5583 13.4161 20.5583 13.4819C20.5583 13.5477 20.5442 13.6128 20.5169 13.6732C20.4897 13.7336 20.4497 13.788 20.3997 13.833C20.3496 13.8781 20.2904 13.9128 20.2258 13.9351C20.1612 13.9573 20.0925 13.9667 20.0239 13.9625ZM16.5125 16.3664C16.5206 16.2442 16.577 16.1296 16.6702 16.0458C16.7633 15.9621 16.8863 15.9154 17.014 15.9154C17.1418 15.9154 17.2647 15.9621 17.3579 16.0458C17.451 16.1296 17.5074 16.2442 17.5155 16.3664C17.5074 16.4886 17.451 16.6032 17.3579 16.687C17.2647 16.7708 17.1418 16.8174 17.014 16.8174C16.8863 16.8174 16.7633 16.7708 16.6702 16.687C16.577 16.6032 16.5206 16.4886 16.5125 16.3664Z" stroke="black" stroke-linecap="round" stroke-linejoin="round"/>
</svg>
