<svg width="120" height="120" viewBox="0 0 120 120" fill="none" xmlns="http://www.w3.org/2000/svg">
<path d="M76.1 30.15L88.75 20.45L72.8 20L67.5 5L62.2 20L46.25 20.45L58.9 30.15L54.35 45.45L67.5 36.4L80.65 45.45L76.1 30.15Z" fill="#001117"/>
<path d="M98.05 61.25L106.25 55L95.95 54.75L92.5 45L89.05 54.75L78.75 55L86.95 61.25L84 71.15L92.5 65.3L101 71.15L98.05 61.25Z" fill="#001117"/>
<path d="M35 30C35 60.4 59.6 85 90 85C92.65 85 95.25 84.8 97.8 84.45C89.75 96.8 75.85 105 60 105C35.15 105 15 84.85 15 60C15 44.15 23.2 30.25 35.55 22.2C35.2 24.75 35 27.35 35 30Z" fill="#001117" stroke="#001117" stroke-width="2" stroke-linecap="round" stroke-linejoin="round"/>
</svg>
