<svg width="60" height="60" viewBox="0 0 60 60" fill="none" xmlns="http://www.w3.org/2000/svg">
<path d="M30 3.125C15.1575 3.125 3.125 15.1575 3.125 30C3.125 44.8425 15.1575 56.875 30 56.875C44.8425 56.875 56.875 44.8425 56.875 30C56.875 15.1575 44.8425 3.125 30 3.125ZM6.875 30C6.87522 26.2736 7.77595 22.6025 9.50048 19.2993C11.225 15.996 13.7223 13.1584 16.7796 11.028C19.837 8.89772 23.3639 7.53778 27.06 7.06403C30.7561 6.59028 34.512 7.01674 38.0078 8.30711C41.5036 9.59748 44.6358 11.7135 47.1377 14.4751C49.6396 17.2366 51.4371 20.5619 52.3771 24.1677C53.3171 27.7736 53.3718 31.5532 52.5366 35.1847C51.7014 38.8163 50.0009 42.1922 47.58 45.025C47.0369 43.1157 46.0323 41.3694 44.655 39.94C42.7 37.9075 40.255 36.725 38.135 36.065C36.57 35.5775 35.095 36.14 34.125 36.7975C33.225 37.4025 31.775 38.125 30 38.125C28.225 38.125 26.775 37.4 25.875 36.7975C24.905 36.1425 23.43 35.5775 21.865 36.065C19.7425 36.725 17.3 37.9075 15.345 39.94C13.968 41.3687 12.9635 43.1141 12.42 45.0225C8.83189 40.8409 6.86421 35.51 6.875 30ZM15.6575 48.14C15.8475 45.6125 16.8075 43.83 18.05 42.5375C19.4325 41.0975 21.25 40.185 22.98 39.645C23.065 39.625 23.1538 39.6276 23.2375 39.6525C23.4306 39.7052 23.6133 39.7906 23.7775 39.905C25.03 40.75 27.2125 41.875 30 41.875C32.7875 41.875 34.97 40.75 36.2225 39.905C36.3869 39.7915 36.5695 39.7069 36.7625 39.655C36.846 39.6292 36.9348 39.6258 37.02 39.645C38.75 40.185 40.5675 41.0975 41.95 42.5375C43.1925 43.83 44.15 45.6125 44.3425 48.14C40.2638 51.3774 35.2073 53.1348 30 53.125C24.7927 53.1348 19.7362 51.3774 15.6575 48.14ZM24.375 25C24.375 21.875 26.8 19.375 30 19.375C33.2 19.375 35.625 21.875 35.625 25C35.625 28.125 33.2 30.625 30 30.625C26.8 30.625 24.375 28.125 24.375 25ZM30 15.625C28.7661 15.615 27.5425 15.8507 26.4006 16.3183C25.2586 16.7859 24.2211 17.4761 23.3486 18.3486C22.4761 19.2211 21.7859 20.2586 21.3183 21.4006C20.8507 22.5425 20.615 23.7661 20.625 25C20.615 26.2339 20.8507 27.4575 21.3183 28.5994C21.7859 29.7414 22.4761 30.7789 23.3486 31.6514C24.2211 32.5239 25.2586 33.2141 26.4006 33.6817C27.5425 34.1493 28.7661 34.385 30 34.375C31.2339 34.385 32.4575 34.1493 33.5994 33.6817C34.7414 33.2141 35.7789 32.5239 36.6514 31.6514C37.5239 30.7789 38.2141 29.7414 38.6817 28.5994C39.1493 27.4575 39.385 26.2339 39.375 25C39.385 23.7661 39.1493 22.5425 38.6817 21.4006C38.2141 20.2586 37.5239 19.2211 36.6514 18.3486C35.7789 17.4761 34.7414 16.7859 33.5994 16.3183C32.4575 15.8507 31.2339 15.615 30 15.625Z" fill="#247AFA"/>
</svg>
