<svg width="25" height="25" viewBox="0 0 25 25" fill="none" xmlns="http://www.w3.org/2000/svg">
<path d="M12.5 1.30206C6.31563 1.30206 1.30209 6.3156 1.30209 12.5C1.30209 18.6844 6.31563 23.6979 12.5 23.6979C18.6844 23.6979 23.6979 18.6844 23.6979 12.5C23.6979 6.3156 18.6844 1.30206 12.5 1.30206ZM2.86459 12.5C2.86468 10.9473 3.23998 9.4177 3.95854 8.04134C4.67709 6.66497 5.71762 5.48263 6.99152 4.595C8.26542 3.70736 9.73495 3.14072 11.275 2.94332C12.815 2.74593 14.38 2.92362 15.8366 3.46128C17.2932 3.99893 18.5982 4.88062 19.6407 6.03127C20.6832 7.18192 21.4321 8.56744 21.8238 10.0699C22.2155 11.5723 22.2383 13.1471 21.8903 14.6603C21.5422 16.1734 20.8337 17.58 19.825 18.7604C19.5987 17.9649 19.1801 17.2372 18.6063 16.6416C17.7917 15.7948 16.7729 15.3021 15.8896 15.0271C15.2375 14.8239 14.6229 15.0583 14.2188 15.3323C13.8438 15.5844 13.2396 15.8854 12.5 15.8854C11.7604 15.8854 11.1563 15.5833 10.7813 15.3323C10.3771 15.0594 9.7625 14.8239 9.11042 15.0271C8.22604 15.3021 7.20834 15.7948 6.39375 16.6416C5.82001 17.2369 5.40147 17.9642 5.175 18.7594C3.67995 17.017 2.86009 14.7958 2.86459 12.5ZM6.52396 20.0583C6.60313 19.0052 7.00313 18.2625 7.52084 17.7239C8.09688 17.1239 8.85417 16.7437 9.575 16.5187C9.61043 16.5104 9.64742 16.5115 9.68229 16.5219C9.76276 16.5438 9.83886 16.5794 9.90729 16.6271C10.4292 16.9791 11.3385 17.4479 12.5 17.4479C13.6615 17.4479 14.5708 16.9791 15.0927 16.6271C15.1612 16.5798 15.2373 16.5445 15.3177 16.5229C15.3525 16.5122 15.3895 16.5107 15.425 16.5187C16.1458 16.7437 16.9031 17.1239 17.4792 17.7239C17.9969 18.2625 18.3958 19.0052 18.476 20.0583C16.7766 21.4072 14.6697 22.1395 12.5 22.1354C10.3303 22.1395 8.22341 21.4072 6.52396 20.0583ZM10.1563 10.4166C10.1563 9.11456 11.1667 8.0729 12.5 8.0729C13.8333 8.0729 14.8438 9.11456 14.8438 10.4166C14.8438 11.7187 13.8333 12.7604 12.5 12.7604C11.1667 12.7604 10.1563 11.7187 10.1563 10.4166ZM12.5 6.5104C11.9859 6.50623 11.476 6.60443 11.0002 6.79926C10.5244 6.99409 10.0921 7.28167 9.72859 7.64523C9.36502 8.00879 9.07745 8.44107 8.88262 8.91688C8.68778 9.39268 8.58959 9.90251 8.59375 10.4166C8.58959 10.9308 8.68778 11.4406 8.88262 11.9164C9.07745 12.3922 9.36502 12.8245 9.72859 13.1881C10.0921 13.5516 10.5244 13.8392 11.0002 14.034C11.476 14.2289 11.9859 14.3271 12.5 14.3229C13.0141 14.3271 13.524 14.2289 13.9998 14.034C14.4756 13.8392 14.9079 13.5516 15.2714 13.1881C15.635 12.8245 15.9226 12.3922 16.1174 11.9164C16.3122 11.4406 16.4104 10.9308 16.4063 10.4166C16.4104 9.90251 16.3122 9.39268 16.1174 8.91688C15.9226 8.44107 15.635 8.00879 15.2714 7.64523C14.9079 7.28167 14.4756 6.99409 13.9998 6.79926C13.524 6.60443 13.0141 6.50623 12.5 6.5104Z" fill="#001117"/>
</svg>
