<svg width="120" height="120" viewBox="0 0 120 120" fill="none" xmlns="http://www.w3.org/2000/svg">
<path d="M51.1425 12.0075C52.166 10.6212 53.5007 9.49442 55.0391 8.71795C56.5775 7.94149 58.2767 7.53699 60 7.53699C61.7232 7.53699 63.4224 7.94149 64.9608 8.71795C66.4992 9.49442 67.8339 10.6212 68.8575 12.0075C70.2235 13.8545 72.1324 15.2287 74.3175 15.938C76.5025 16.6473 78.8545 16.6563 81.045 15.9638C82.6883 15.4435 84.4309 15.3164 86.1324 15.5927C87.8339 15.869 89.4467 16.5409 90.841 17.5544C92.2354 18.5679 93.3723 19.8946 94.1602 21.4277C94.9481 22.9608 95.3651 24.6575 95.3775 26.3813C95.3973 28.6774 96.1336 30.91 97.4835 32.7675C98.8334 34.625 100.73 36.0147 102.907 36.7425C104.543 37.2872 106.028 38.2084 107.242 39.4319C108.457 40.6554 109.367 42.147 109.9 43.7865C110.432 45.4261 110.573 47.1678 110.309 48.8714C110.045 50.5751 109.386 52.193 108.382 53.595C107.048 55.4642 106.331 57.7035 106.331 60C106.331 62.2966 107.048 64.5358 108.382 66.405C109.386 67.807 110.045 69.425 110.309 71.1286C110.573 72.8322 110.432 74.574 109.9 76.2135C109.367 77.8531 108.457 79.3446 107.242 80.5681C106.028 81.7916 104.543 82.7128 102.907 83.2575C100.73 83.9853 98.8334 85.375 97.4835 87.2325C96.1336 89.09 95.3973 91.3226 95.3775 93.6188C95.3653 95.3429 94.9483 97.0401 94.1601 98.5736C93.372 100.107 92.2347 101.434 90.8399 102.448C89.4451 103.461 87.8317 104.133 86.1298 104.409C84.4278 104.685 82.6848 104.557 81.0412 104.036C78.8513 103.345 76.5001 103.354 74.3158 104.063C72.1315 104.773 70.2233 106.146 68.8575 107.993C67.8339 109.379 66.4992 110.506 64.9608 111.282C63.4224 112.059 61.7232 112.463 60 112.463C58.2767 112.463 56.5775 112.059 55.0391 111.282C53.5007 110.506 52.166 109.379 51.1425 107.993C49.7764 106.146 47.8675 104.771 45.6825 104.062C43.4974 103.353 41.1454 103.344 38.955 104.036C37.3116 104.556 35.569 104.684 33.8675 104.407C32.1661 104.131 30.5532 103.459 29.1589 102.446C27.7646 101.432 26.6277 100.105 25.8397 98.5723C25.0518 97.0392 24.6349 95.3425 24.6225 93.6188C24.6026 91.3226 23.8664 89.09 22.5164 87.2325C21.1665 85.375 19.2703 83.9853 17.0925 83.2575C15.4569 82.7128 13.9721 81.7916 12.7576 80.5681C11.5431 79.3446 10.6329 77.8531 10.1003 76.2135C9.56761 74.574 9.4274 72.8322 9.69092 71.1286C9.95445 69.425 10.6143 67.807 11.6175 66.405C12.9516 64.5358 13.6688 62.2966 13.6688 60C13.6688 57.7035 12.9516 55.4642 11.6175 53.595C10.6143 52.193 9.95445 50.5751 9.69092 48.8714C9.4274 47.1678 9.56761 45.4261 10.1003 43.7865C10.6329 42.147 11.5431 40.6554 12.7576 39.4319C13.9721 38.2084 15.4569 37.2872 17.0925 36.7425C19.2703 36.0147 21.1665 34.625 22.5164 32.7675C23.8664 30.91 24.6026 28.6774 24.6225 26.3813C24.6347 24.6571 25.0516 22.9599 25.8398 21.4264C26.6279 19.8929 27.7652 18.566 29.16 17.5524C30.5548 16.5388 32.1682 15.867 33.8702 15.5911C35.5721 15.3152 37.3151 15.4428 38.9587 15.9638C41.1486 16.6554 43.4999 16.6459 45.6841 15.9367C47.8684 15.2274 49.7766 13.8538 51.1425 12.0075Z" fill="#FF822D"/>
<path d="M93.9825 79.62C83.145 98.3888 59.145 104.82 40.38 93.9825C21.615 83.145 15.18 59.145 26.0175 40.38C36.855 21.615 60.855 15.18 79.62 26.0175C98.385 36.855 104.82 60.855 93.9825 79.62Z" fill="#FCD53F"/>
</svg>
